<svg xmlns="http://www.w3.org/2000/svg" width="30.805" height="25.017" viewBox="0 0 30.805 25.017">
  <g id="logo" transform="translate(0)">
    <path id="Path_124522" data-name="Path 124522" d="M21.505,14.057a2.057,2.057,0,0,0-2.9,0L10.15,22.509H6.571l5.387-5.339a1.251,1.251,0,0,0,0-1.776h0a1.251,1.251,0,0,0-1.761,0l-8.1,8.025a6.224,6.224,0,0,0,4.162,1.6h4.933l8.864-8.865,6.027,6.027a3.712,3.712,0,0,1-1.531.329H17.242l-2.508,2.508h9.816a6.255,6.255,0,0,0,5.186-2.761Z" fill="#fd925c"/>
    <path id="Path_124523" data-name="Path 124523" d="M24.549,0h-6.29V7.336l-4.926,4.926a1.254,1.254,0,1,0,1.774,1.774L20.4,8.743a1.256,1.256,0,0,0,.367-.887V2.508h2.51V5.121L25.786,7.63V2.723A3.751,3.751,0,0,1,28.3,6.256v7.432l-5.019-5.02v3.548L30.727,19.7a6.241,6.241,0,0,0,.078-.939V6.256A6.263,6.263,0,0,0,24.549,0Z" fill="#fd925c"/>
    <path id="Path_124524" data-name="Path 124524" d="M15.751,0H11.507L8.972,2.508h0l-6.466,6.4V6.256a3.751,3.751,0,0,1,2.76-3.611L7.941,0H6.256A6.264,6.264,0,0,0,0,6.256v8.635L12.54,2.508h.709V5.3L0,18.408v.353a6.208,6.208,0,0,0,.581,2.616l14.8-14.66a1.252,1.252,0,0,0,.372-.891Z" fill="#fd925c"/>
  </g>
</svg>
