<?xml version="1.0" encoding="utf-8"?>
<!-- Generator: Adobe Illustrator 23.0.1, SVG Export Plug-In . SVG Version: 6.00 Build 0)  -->
<svg version="1.1" id="Warstwa_1" xmlns="http://www.w3.org/2000/svg" xmlns:xlink="http://www.w3.org/1999/xlink" x="0px" y="0px"
	 viewBox="35 35 435 435" style="enable-background:new 0 0 500 500;" xml:space="preserve">
<style type="text/css">
	.st0{fill:#ffffff;}
</style>
<g>
	<path class="st0" d="M161.3,226c-0.2,0-0.4,0-0.6,0c-7.7-0.4-13.7-6.9-13.3-14.6c1.2-27.1,12.9-52,32.9-70.3
		c20-18.3,45.9-27.6,73-26.4c25.4,1.2,49.2,11.7,67.2,29.7c17.8,17.9,28.3,41.5,29.5,66.7c0.4,7.7-5.6,14.3-13.3,14.7
		c-7.7,0.4-14.3-5.6-14.7-13.3c-1.8-38-31.9-68-70-69.7c-19.6-0.9-38.4,5.9-52.8,19.1c-14.5,13.2-22.9,31.3-23.8,50.9
		C174.9,220.1,168.7,226,161.3,226z"/>
</g>
<g>
	<path class="st0" d="M102.4,268.6c-7.7,0-14-6.2-14-13.9l0-0.5c0-43.3,33-78.4,73.6-78.4c7.7,0,14,6.3,14,14s-6.3,14-14,14
		c-25.2,0-45.6,22.6-45.6,50.4l0,0.5C116.4,262.3,110.2,268.6,102.4,268.6C102.4,268.6,102.4,268.6,102.4,268.6z"/>
</g>
<g>
	<path class="st0" d="M395.5,268.6C395.5,268.6,395.5,268.6,395.5,268.6c-7.8,0-14-6.3-14-14.1l0-0.5c0-27.7-20.5-50.3-45.6-50.3
		c-7.7,0-14-6.3-14-14s6.3-14,14-14c40.6,0,73.6,35.2,73.6,78.4l0,0.6C409.5,262.4,403.2,268.6,395.5,268.6z"/>
</g>
<g>
	<polygon class="st0" points="301,243.4 241.3,303.1 263.5,314.3 289.9,287.9 289.9,392.5 312.4,392.5 312.4,288.1 338.6,314.3 
		360.7,303.1 	"/>
	<polygon class="st0" points="201.9,349.1 201.9,244.4 179.5,244.4 179.5,348.8 153.3,322.6 131.1,333.8 190.8,393.5 250.5,333.8 
		228.4,322.6 	"/>
</g>
</svg>
