<?xml version="1.0" encoding="utf-8"?>
<!-- Generator: Adobe Illustrator 23.0.1, SVG Export Plug-In . SVG Version: 6.00 Build 0)  -->
<svg version="1.1" id="Warstwa_1" xmlns="http://www.w3.org/2000/svg" xmlns:xlink="http://www.w3.org/1999/xlink" x="0px" y="0px"
	 viewBox="45 15 405 435" style="enable-background:new 0 0 500 500;" xml:space="preserve">
<style type="text/css">
	.st0{fill:#ffffff;}
</style>
<polygon class="st0" points="393.1,315.5 334.1,315.5 334.1,256.8 297.9,256.8 297.9,315.5 239,315.5 239,350.9 297.9,350.9 
	297.9,410.9 334.1,410.9 334.1,350.9 393.1,350.9 "/>
<g>
	<path class="st0" d="M379.3,236.7c-9,0-16.6-6.9-17.4-16c-1.8-21.1-18.1-37.6-37.1-37.6c-9.7,0-17.5-7.8-17.5-17.5
		s7.8-17.5,17.5-17.5c18.4,0,35.9,7.3,49.3,20.6c13,12.9,21,30.3,22.6,49.1c0.8,9.6-6.3,18.1-16,18.9
		C380.3,236.7,379.8,236.7,379.3,236.7z"/>
</g>
<g>
	<path class="st0" d="M187.8,301.2l-24,0c-38.9-1.3-69.7-34.6-70-76l0-0.5c0-42.3,32.4-76.7,72.2-76.7c9.7,0,17.5,7.8,17.5,17.5
		S175.7,183,166,183c-20.5,0-37.2,18.7-37.2,41.6l0,0.4c0.2,22.3,15.9,40.4,35.9,41.2h23.1c9.7,0,17.5,7.8,17.5,17.5
		S197.4,301.2,187.8,301.2z"/>
</g>
<g>
	<path class="st0" d="M165.3,203.5c-0.3,0-0.5,0-0.8,0c-9.7-0.4-17.1-8.6-16.7-18.3c2.4-53.8,48.3-95.6,102.1-93.2
		c24.5,1.1,47.5,11.3,64.8,28.6c17.2,17.2,27.3,40,28.4,64.2c0.5,9.7-7,17.9-16.6,18.3c-9.7,0.5-17.9-7-18.3-16.6
		c-1.6-32.5-27.3-58.1-59.8-59.6c-34.6-1.6-64,25.3-65.5,59.8C182.4,196.2,174.6,203.5,165.3,203.5z"/>
</g>
</svg>
