<?xml version="1.0" encoding="UTF-8"?>
<svg xmlns="http://www.w3.org/2000/svg" xmlns:xlink="http://www.w3.org/1999/xlink" width="22px" height="24px" viewBox="0 0 22 23" version="1.1">
<g id="surface1">
<path style=" stroke:none;fill-rule:nonzero;fill:rgb(33.333333%,36.470588%,39.607843%);fill-opacity:1;" d="M 18.910156 15.886719 L 15.703125 15.886719 L 15.703125 12.785156 L 13.738281 12.785156 L 13.738281 15.886719 L 10.539062 15.886719 L 10.539062 17.761719 L 13.738281 17.761719 L 13.738281 20.933594 L 15.703125 20.933594 L 15.703125 17.761719 L 18.910156 17.761719 Z M 18.910156 15.886719 "/>
<path style=" stroke:none;fill-rule:nonzero;fill:rgb(33.333333%,36.470588%,39.607843%);fill-opacity:1;" d="M 18.160156 11.722656 C 17.671875 11.722656 17.257812 11.355469 17.214844 10.875 C 17.117188 9.761719 16.230469 8.886719 15.199219 8.886719 C 14.671875 8.886719 14.25 8.476562 14.25 7.960938 C 14.25 7.449219 14.671875 7.039062 15.199219 7.039062 C 16.199219 7.039062 17.148438 7.421875 17.878906 8.125 C 18.582031 8.808594 19.019531 9.730469 19.105469 10.722656 C 19.148438 11.230469 18.761719 11.679688 18.234375 11.722656 C 18.214844 11.722656 18.1875 11.722656 18.160156 11.722656 Z M 18.160156 11.722656 "/>
<path style=" stroke:none;fill-rule:nonzero;fill:rgb(33.333333%,36.470588%,39.607843%);fill-opacity:1;" d="M 7.757812 15.132812 L 6.453125 15.132812 C 4.339844 15.0625 2.667969 13.304688 2.652344 11.113281 L 2.652344 11.085938 C 2.652344 8.851562 4.410156 7.03125 6.574219 7.03125 C 7.101562 7.03125 7.523438 7.445312 7.523438 7.957031 C 7.523438 8.46875 7.101562 8.882812 6.574219 8.882812 C 5.460938 8.882812 4.550781 9.871094 4.550781 11.082031 L 4.550781 11.101562 C 4.5625 12.28125 5.414062 13.238281 6.503906 13.28125 L 7.757812 13.28125 C 8.285156 13.28125 8.707031 13.695312 8.707031 14.207031 C 8.707031 14.71875 8.277344 15.132812 7.757812 15.132812 Z M 7.757812 15.132812 "/>
<path style=" stroke:none;fill-rule:nonzero;fill:rgb(33.333333%,36.470588%,39.607843%);fill-opacity:1;" d="M 6.535156 9.964844 C 6.519531 9.964844 6.507812 9.964844 6.492188 9.964844 C 5.964844 9.945312 5.5625 9.511719 5.585938 9 C 5.714844 6.15625 8.207031 3.945312 11.128906 4.070312 C 12.460938 4.128906 13.710938 4.667969 14.648438 5.582031 C 15.585938 6.492188 16.132812 7.699219 16.191406 8.976562 C 16.21875 9.492188 15.8125 9.925781 15.292969 9.945312 C 14.765625 9.972656 14.320312 9.574219 14.296875 9.066406 C 14.210938 7.347656 12.8125 5.996094 11.050781 5.917969 C 9.167969 5.832031 7.574219 7.253906 7.492188 9.078125 C 7.464844 9.582031 7.039062 9.964844 6.535156 9.964844 Z M 6.535156 9.964844 "/>
</g>
</svg>
