<svg id="Layer_1" data-name="Layer 1" xmlns="http://www.w3.org/2000/svg" viewBox="0 0 449.13 359.35"><defs><style>.cls-1{fill:#a4a4a4;}</style></defs><title>45096cee845aef190ea2ef1b5abba4a5</title><path class="cls-1" d="M159.73,212.81a44.76,44.76,0,0,1-44.92,44.92A44.76,44.76,0,0,1,69.9,212.81a44.76,44.76,0,0,1,44.91-44.91,44.76,44.76,0,0,1,44.92,44.91Zm239.5,89.83V407.45H69.9V362.54l74.84-74.89,37.44,37.44L301.93,205.34Zm22.46-164.71H47.44a7.24,7.24,0,0,0-5.27,2.2A7.09,7.09,0,0,0,40,145.4V429.86a7.25,7.25,0,0,0,2.2,5.27,7.05,7.05,0,0,0,5.27,2.2H421.73a7.21,7.21,0,0,0,5.27-2.2,7,7,0,0,0,2.2-5.27V145.44a7.58,7.58,0,0,0-7.51-7.51Zm37.44,7.51V429.91a37.56,37.56,0,0,1-37.44,37.44H47.44a36,36,0,0,1-26.44-11,36,36,0,0,1-11-26.44V145.44A36,36,0,0,1,21,119a36,36,0,0,1,26.44-11H421.73a37.47,37.47,0,0,1,37.4,37.44Z" transform="translate(-10 -108)"/></svg>