<svg xmlns="http://www.w3.org/2000/svg" width="36" height="36" viewBox="0 0 36 36">
    <g fill="none" fill-rule="evenodd" stroke="#FFF" stroke-linecap="round" stroke-linejoin="round" stroke-width="1.818" transform="translate(8 8)">
        <circle cx="10" cy="10" r="2.727"/>
        <path d="M16.727 12.727a1.5 1.5 0 0 0 .3 1.655l.055.054a1.818 1.818 0 1 1-2.573 2.573l-.054-.054a1.5 1.5 0 0 0-1.655-.3 1.5 1.5 0 0 0-.91 1.372v.155a1.818 1.818 0 1 1-3.635 0V18.1a1.5 1.5 0 0 0-.982-1.373 1.5 1.5 0 0 0-1.655.3l-.054.055a1.818 1.818 0 1 1-2.573-2.573l.054-.054a1.5 1.5 0 0 0 .3-1.655 1.5 1.5 0 0 0-1.372-.91h-.155a1.818 1.818 0 1 1 0-3.635H1.9a1.5 1.5 0 0 0 1.373-.982 1.5 1.5 0 0 0-.3-1.655l-.055-.054A1.818 1.818 0 1 1 5.491 2.99l.054.054a1.5 1.5 0 0 0 1.655.3h.073a1.5 1.5 0 0 0 .909-1.372v-.155a1.818 1.818 0 0 1 3.636 0V1.9a1.5 1.5 0 0 0 .91 1.373 1.5 1.5 0 0 0 1.654-.3l.054-.055a1.818 1.818 0 1 1 2.573 2.573l-.054.054a1.5 1.5 0 0 0-.3 1.655v.073a1.5 1.5 0 0 0 1.372.909h.155a1.818 1.818 0 1 1 0 3.636H18.1a1.5 1.5 0 0 0-1.373.91z"/>
    </g>
</svg>
